EBGaramondVF-Expanded_Regular.ufo
<glyph name="numbersign" format="1">
  <advance width="639"/>
  <unicode hex="0023"/>
  <outline>
    <contour>
      <point x="143" y="-64" type="curve" smooth="yes"/>
      <point x="187" y="112" type="line"/>
      <point x="352" y="118" type="line"/>
      <point x="310" y="-53" type="line"/>
      <point x="310" y="-56" type="line" smooth="yes"/>
      <point x="310" y="-62"/>
      <point x="314" y="-68"/>
      <point x="320" y="-68" type="curve" smooth="yes"/>
      <point x="333" y="-68"/>
      <point x="350" y="-66"/>
      <point x="353" y="-53" type="curve" smooth="yes"/>
      <point x="396" y="120" type="line"/>
      <point x="500" y="123" type="line" smooth="yes"/>
      <point x="523" y="124"/>
      <point x="532" y="164"/>
      <point x="532" y="174" type="curve" smooth="yes"/>
      <point x="532" y="182"/>
      <point x="526" y="187"/>
      <point x="518" y="187" type="curve"/>
      <point x="412" y="184" type="line"/>
      <point x="445" y="320" type="line"/>
      <point x="547" y="323" type="line" smooth="yes"/>
      <point x="570" y="324"/>
      <point x="579" y="365"/>
      <point x="579" y="376" type="curve" smooth="yes"/>
      <point x="579" y="383"/>
      <point x="573" y="387"/>
      <point x="566" y="387" type="curve"/>
      <point x="461" y="384" type="line"/>
      <point x="502" y="553" type="line"/>
      <point x="502" y="555"/>
      <point x="503" y="556"/>
      <point x="503" y="558" type="curve" smooth="yes"/>
      <point x="503" y="564"/>
      <point x="500" y="570"/>
      <point x="495" y="570" type="curve" smooth="yes"/>
      <point x="481" y="570"/>
      <point x="462" y="567"/>
      <point x="459" y="553" type="curve" smooth="yes"/>
      <point x="416" y="382" type="line"/>
      <point x="252" y="376" type="line"/>
      <point x="292" y="542" type="line"/>
      <point x="292" y="544"/>
      <point x="293" y="545"/>
      <point x="293" y="547" type="curve" smooth="yes"/>
      <point x="293" y="553"/>
      <point x="290" y="559"/>
      <point x="285" y="559" type="curve" smooth="yes"/>
      <point x="271" y="559"/>
      <point x="252" y="556"/>
      <point x="248" y="541" type="curve" smooth="yes"/>
      <point x="207" y="374" type="line"/>
      <point x="96" y="371" type="line" smooth="yes"/>
      <point x="74" y="370"/>
      <point x="71" y="330"/>
      <point x="71" y="320" type="curve" smooth="yes"/>
      <point x="71" y="312"/>
      <point x="78" y="307"/>
      <point x="85" y="307" type="curve"/>
      <point x="191" y="310" type="line"/>
      <point x="158" y="174" type="line"/>
      <point x="48" y="171" type="line" smooth="yes"/>
      <point x="26" y="170"/>
      <point x="23" y="130"/>
      <point x="23" y="119" type="curve" smooth="yes"/>
      <point x="23" y="112"/>
      <point x="30" y="107"/>
      <point x="37" y="107" type="curve"/>
      <point x="143" y="110" type="line"/>
      <point x="100" y="-64" type="line"/>
      <point x="100" y="-67" type="line" smooth="yes"/>
      <point x="100" y="-73"/>
      <point x="104" y="-79"/>
      <point x="110" y="-79" type="curve" smooth="yes"/>
      <point x="123" y="-79"/>
      <point x="140" y="-77"/>
    </contour>
    <contour>
      <point x="236" y="312" type="line"/>
      <point x="400" y="318" type="line"/>
      <point x="368" y="182" type="line"/>
      <point x="203" y="176" type="line"/>
    </contour>
  </outline>
</glyph>
<glyph name="dollar" format="1">
  <advance width="591"/>
  <unicode hex="0024"/>
  <outline>
    <contour>
      <point x="268" y="-67" type="curve" smooth="yes"/>
      <point x="280" y="9" type="line" smooth="yes"/>
      <point x="281" y="14"/>
      <point x="284" y="16"/>
      <point x="289" y="16" type="curve" smooth="yes"/>
      <point x="445" y="21"/>
      <point x="547" y="92"/>
      <point x="547" y="196" type="curve" smooth="yes"/>
      <point x="547" y="276"/>
      <point x="482" y="321"/>
      <point x="348" y="368" type="curve"/>
      <point x="335" y="375"/>
      <point x="335" y="378"/>
      <point x="336" y="386" type="curve" smooth="yes"/>
      <point x="365" y="578" type="line"/>
      <point x="365" y="580"/>
      <point x="367" y="583"/>
      <point x="369" y="583" type="curve" smooth="yes"/>
      <point x="424" y="575"/>
      <point x="473" y="547"/>
      <point x="496" y="499" type="curve" smooth="yes"/>
      <point x="499" y="491"/>
      <point x="512" y="485"/>
      <point x="523" y="485" type="curve" smooth="yes"/>
      <point x="531" y="485"/>
      <point x="538" y="488"/>
      <point x="538" y="496" type="curve" smooth="yes"/>
      <point x="538" y="524"/>
      <point x="523" y="563"/>
      <point x="513" y="588" type="curve" smooth="yes"/>
      <point x="508" y="598"/>
      <point x="498" y="608"/>
      <point x="485" y="611" type="curve" smooth="yes"/>
      <point x="461" y="618"/>
      <point x="428" y="626"/>
      <point x="382" y="630" type="curve" smooth="yes"/>
      <point x="377" y="631"/>
      <point x="376" y="634"/>
      <point x="376" y="637" type="curve" smooth="yes"/>
      <point x="378" y="647"/>
      <point x="383" y="686"/>
      <point x="385" y="696" type="curve"/>
      <point x="385" y="703"/>
      <point x="379" y="711"/>
      <point x="372" y="711" type="curve" smooth="yes"/>
      <point x="359" y="711"/>
      <point x="338" y="708"/>
      <point x="336" y="695" type="curve" smooth="yes"/>
      <point x="327" y="638" type="line" smooth="yes"/>
      <point x="327" y="635"/>
      <point x="323" y="632"/>
      <point x="317" y="632" type="curve" smooth="yes"/>
      <point x="159" y="626"/>
      <point x="79" y="552"/>
      <point x="79" y="465" type="curve" smooth="yes"/>
      <point x="79" y="394"/>
      <point x="143" y="353"/>
      <point x="262" y="309" type="curve" smooth="yes"/>
      <point x="274" y="303"/>
      <point x="275" y="297"/>
      <point x="274" y="292" type="curve" smooth="yes"/>
      <point x="240" y="65" type="line" smooth="yes"/>
      <point x="240" y="61"/>
      <point x="235" y="61"/>
      <point x="231" y="62" type="curve"/>
      <point x="156" y="74"/>
      <point x="116" y="103"/>
      <point x="91" y="176" type="curve" smooth="yes"/>
      <point x="90" y="183"/>
      <point x="82" y="187"/>
      <point x="74" y="187" type="curve" smooth="yes"/>
      <point x="63" y="187"/>
      <point x="55" y="182"/>
      <point x="55" y="174" type="curve"/>
      <point x="57" y="149"/>
      <point x="58" y="103"/>
      <point x="67" y="78" type="curve" smooth="yes"/>
      <point x="70" y="71"/>
      <point x="78" y="65"/>
      <point x="84" y="60" type="curve" smooth="yes"/>
      <point x="124" y="38"/>
      <point x="174" y="22"/>
      <point x="227" y="18" type="curve" smooth="yes"/>
      <point x="230" y="18"/>
      <point x="235" y="15"/>
      <point x="234" y="9" type="curve"/>
      <point x="223" y="-62" type="line" smooth="yes"/>
      <point x="221" y="-75"/>
      <point x="230" y="-82"/>
      <point x="239" y="-82" type="curve" smooth="yes"/>
      <point x="252" y="-82"/>
      <point x="267" y="-78"/>
    </contour>
    <contour>
      <point x="288" y="66" type="curve"/>
      <point x="321" y="275" type="line" smooth="yes"/>
      <point x="321" y="279"/>
      <point x="324" y="282"/>
      <point x="328" y="280" type="curve"/>
      <point x="418" y="248"/>
      <point x="465" y="223"/>
      <point x="465" y="160" type="curve" smooth="yes"/>
      <point x="465" y="90"/>
      <point x="382" y="59"/>
      <point x="296" y="57" type="curve"/>
      <point x="290" y="57"/>
      <point x="288" y="59"/>
    </contour>
    <contour>
      <point x="159" y="497" type="curve" smooth="yes"/>
      <point x="159" y="565"/>
      <point x="231" y="586"/>
      <point x="311" y="588" type="curve"/>
      <point x="316" y="588"/>
      <point x="317" y="585"/>
      <point x="317" y="580" type="curve"/>
      <point x="290" y="404" type="line"/>
      <point x="290" y="400"/>
      <point x="289" y="398"/>
      <point x="281" y="401" type="curve"/>
      <point x="196" y="434"/>
      <point x="159" y="461"/>
    </contour>
  </outline>
</glyph>
<glyph name="plus" format="1">
  <advance width="590"/>
  <unicode hex="002B"/>
  <outline>
    <contour>
      <point x="327" y="16" type="curve" smooth="yes"/>
      <point x="327" y="212" type="line" smooth="yes"/>
      <point x="327" y="216"/>
      <point x="328" y="217"/>
      <point x="331" y="217" type="curve" smooth="yes"/>
      <point x="514" y="217" type="line" smooth="yes"/>
      <point x="533" y="217"/>
      <point x="545" y="242"/>
      <point x="545" y="260" type="curve" smooth="yes"/>
      <point x="545" y="266"/>
      <point x="539" y="271"/>
      <point x="532" y="271" type="curve" smooth="yes"/>
      <point x="329" y="271" type="line" smooth="yes"/>
      <point x="327" y="271"/>
      <point x="327" y="272"/>
      <point x="327" y="277" type="curve" smooth="yes"/>
      <point x="327" y="469" type="line" smooth="yes"/>
      <point x="327" y="476"/>
      <point x="319" y="482"/>
      <point x="312" y="482" type="curve" smooth="yes"/>
      <point x="305" y="482"/>
      <point x="264" y="473"/>
      <point x="264" y="451" type="curve" smooth="yes"/>
      <point x="264" y="280" type="line" smooth="yes"/>
      <point x="264" y="273"/>
      <point x="263" y="271"/>
      <point x="256" y="271" type="curve" smooth="yes"/>
      <point x="69" y="271" type="line" smooth="yes"/>
      <point x="51" y="271"/>
      <point x="45" y="240"/>
      <point x="45" y="230" type="curve" smooth="yes"/>
      <point x="45" y="224"/>
      <point x="52" y="217"/>
      <point x="59" y="217" type="curve" smooth="yes"/>
      <point x="259" y="217" type="line" smooth="yes"/>
      <point x="263" y="217"/>
      <point x="264" y="215"/>
      <point x="264" y="211" type="curve" smooth="yes"/>
      <point x="264" y="6" type="line" smooth="yes"/>
      <point x="264" y="-1"/>
      <point x="270" y="-8"/>
      <point x="276" y="-8" type="curve" smooth="yes"/>
      <point x="286" y="-8"/>
      <point x="327" y="-5"/>
    </contour>
  </outline>
</glyph>
<glyph name="two" format="1">
  <advance width="677"/>
  <unicode hex="0032"/>
  <outline>
    <contour>
      <point x="623" y="22" type="curve" smooth="yes"/>
      <point x="636" y="73"/>
      <point x="657" y="119"/>
      <point x="657" y="130" type="curve" smooth="yes"/>
      <point x="657" y="135"/>
      <point x="654" y="144"/>
      <point x="644" y="144" type="curve" smooth="yes"/>
      <point x="631" y="144"/>
      <point x="621" y="129"/>
      <point x="615" y="118" type="curve" smooth="yes"/>
      <point x="593" y="83"/>
      <point x="574" y="70"/>
      <point x="516" y="68" type="curve" smooth="yes"/>
      <point x="437" y="66"/>
      <point x="377" y="65"/>
      <point x="327" y="65" type="curve" smooth="yes"/>
      <point x="276" y="65"/>
      <point x="241" y="66"/>
      <point x="211" y="68" type="curve" smooth="yes"/>
      <point x="200" y="69"/>
      <point x="191" y="70"/>
      <point x="191" y="75" type="curve" smooth="yes"/>
      <point x="194" y="81"/>
      <point x="410" y="234"/>
      <point x="474" y="288" type="curve" smooth="yes"/>
      <point x="532" y="339"/>
      <point x="574" y="412"/>
      <point x="574" y="465" type="curve" smooth="yes"/>
      <point x="574" y="562"/>
      <point x="490" y="630"/>
      <point x="350" y="630" type="curve" smooth="yes"/>
      <point x="190" y="630"/>
      <point x="78" y="535"/>
      <point x="78" y="502" type="curve" smooth="yes"/>
      <point x="77" y="484"/>
      <point x="86" y="469"/>
      <point x="94" y="469" type="curve" smooth="yes"/>
      <point x="104" y="469"/>
      <point x="112" y="476"/>
      <point x="118" y="484" type="curve"/>
      <point x="160" y="533"/>
      <point x="234" y="566"/>
      <point x="317" y="566" type="curve" smooth="yes"/>
      <point x="404" y="566"/>
      <point x="478" y="523"/>
      <point x="478" y="452" type="curve" smooth="yes"/>
      <point x="478" y="367"/>
      <point x="399" y="279"/>
      <point x="301" y="208" type="curve" smooth="yes"/>
      <point x="56" y="28" type="line" smooth="yes"/>
      <point x="48" y="22"/>
      <point x="45" y="21"/>
      <point x="45" y="15" type="curve" smooth="yes"/>
      <point x="45" y="9"/>
      <point x="66" y="-2"/>
      <point x="72" y="-2" type="curve" smooth="yes"/>
      <point x="100" y="-2"/>
      <point x="327" y="3"/>
      <point x="397" y="3" type="curve" smooth="yes"/>
      <point x="467" y="3"/>
      <point x="565" y="-3"/>
      <point x="593" y="-3" type="curve" smooth="yes"/>
      <point x="602" y="-3"/>
      <point x="617" y="0"/>
    </contour>
  </outline>
</glyph>
<glyph name="three" format="1">
  <advance width="677"/>
  <unicode hex="0033"/>
  <outline>
    <contour>
      <point x="609" y="203" type="curve" smooth="yes"/>
      <point x="609" y="290"/>
      <point x="516" y="354"/>
      <point x="400" y="354" type="curve" smooth="yes"/>
      <point x="393" y="354"/>
      <point x="393" y="358"/>
      <point x="398" y="360" type="curve"/>
      <point x="506" y="405"/>
      <point x="544" y="467"/>
      <point x="544" y="516" type="curve" smooth="yes"/>
      <point x="544" y="584"/>
      <point x="454" y="630"/>
      <point x="362" y="630" type="curve" smooth="yes"/>
      <point x="171" y="630"/>
      <point x="91" y="535"/>
      <point x="91" y="500" type="curve" smooth="yes"/>
      <point x="91" y="490"/>
      <point x="106" y="476"/>
      <point x="119" y="476" type="curve" smooth="yes"/>
      <point x="141" y="476"/>
      <point x="168" y="568"/>
      <point x="316" y="568" type="curve" smooth="yes"/>
      <point x="399" y="568"/>
      <point x="453" y="523"/>
      <point x="453" y="468" type="curve" smooth="yes"/>
      <point x="453" y="399"/>
      <point x="310" y="349"/>
      <point x="266" y="334" type="curve" smooth="yes"/>
      <point x="235" y="328"/>
      <point x="218" y="316"/>
      <point x="212" y="296" type="curve" smooth="yes"/>
      <point x="209" y="288"/>
      <point x="226" y="281"/>
      <point x="241" y="285" type="curve" smooth="yes"/>
      <point x="276" y="297"/>
      <point x="317" y="299"/>
      <point x="339" y="299" type="curve" smooth="yes"/>
      <point x="460" y="299"/>
      <point x="514" y="223"/>
      <point x="514" y="147" type="curve" smooth="yes"/>
      <point x="514" y="67"/>
      <point x="404" y="6"/>
      <point x="294" y="6" type="curve" smooth="yes"/>
      <point x="238" y="6"/>
      <point x="201" y="21"/>
      <point x="175" y="37" type="curve" smooth="yes"/>
      <point x="158" y="47"/>
      <point x="142" y="56"/>
      <point x="122" y="56" type="curve" smooth="yes"/>
      <point x="100" y="56"/>
      <point x="67" y="24"/>
      <point x="67" y="9" type="curve" smooth="yes"/>
      <point x="67" y="-13"/>
      <point x="156" y="-38"/>
      <point x="222" y="-38" type="curve" smooth="yes"/>
      <point x="411" y="-38"/>
      <point x="609" y="53"/>
    </contour>
  </outline>
</glyph>
<glyph name="seven" format="1">
  <advance width="677"/>
  <unicode hex="0037"/>
  <outline>
    <contour>
      <point x="182" y="-6" type="curve" smooth="yes"/>
      <point x="589" y="538" type="line" smooth="yes"/>
      <point x="603" y="555"/>
      <point x="641" y="592"/>
      <point x="641" y="608" type="curve" smooth="yes"/>
      <point x="641" y="613"/>
      <point x="637" y="621"/>
      <point x="633" y="621" type="curve" smooth="yes"/>
      <point x="607" y="619"/>
      <point x="464" y="616"/>
      <point x="329" y="616" type="curve" smooth="yes"/>
      <point x="265" y="616"/>
      <point x="234" y="617"/>
      <point x="193" y="617" type="curve" smooth="yes"/>
      <point x="135" y="617"/>
      <point x="81" y="626"/>
      <point x="77" y="626" type="curve" smooth="yes"/>
      <point x="73" y="626"/>
      <point x="65" y="624"/>
      <point x="63" y="614" type="curve" smooth="yes"/>
      <point x="59" y="588"/>
      <point x="50" y="540"/>
      <point x="40" y="509" type="curve"/>
      <point x="39" y="504"/>
      <point x="35" y="493"/>
      <point x="35" y="486" type="curve" smooth="yes"/>
      <point x="35" y="481"/>
      <point x="36" y="471"/>
      <point x="45" y="471" type="curve" smooth="yes"/>
      <point x="56" y="471"/>
      <point x="68" y="489"/>
      <point x="73" y="496" type="curve" smooth="yes"/>
      <point x="99" y="533"/>
      <point x="126" y="542"/>
      <point x="163" y="542" type="curve" smooth="yes"/>
      <point x="569" y="542" type="line"/>
      <point x="584" y="594" type="line"/>
      <point x="166" y="43" type="line" smooth="yes"/>
      <point x="152" y="24"/>
      <point x="132" y="3"/>
      <point x="132" y="-4" type="curve" smooth="yes"/>
      <point x="132" y="-19"/>
      <point x="140" y="-32"/>
      <point x="157" y="-32" type="curve" smooth="yes"/>
      <point x="162" y="-32"/>
      <point x="174" y="-16"/>
    </contour>
  </outline>
</glyph>
<glyph name="A" format="1">
  <advance width="955"/>
  <unicode hex="0041"/>
  <outline>
    <contour>
      <point x="187" y="2" type="curve" smooth="yes"/>
      <point x="234" y="2"/>
      <point x="280" y="0"/>
      <point x="302" y="0" type="curve" smooth="yes"/>
      <point x="324" y="0"/>
      <point x="340" y="3"/>
      <point x="340" y="13" type="curve" smooth="yes"/>
      <point x="340" y="23"/>
      <point x="327" y="30"/>
      <point x="296" y="36" type="curve" smooth="yes"/>
      <point x="255" y="45"/>
      <point x="221" y="64"/>
      <point x="221" y="93" type="curve" smooth="yes"/>
      <point x="221" y="106"/>
      <point x="266" y="201"/>
      <point x="278" y="227" type="curve" smooth="yes"/>
      <point x="285" y="241"/>
      <point x="293" y="245"/>
      <point x="302" y="245" type="curve" smooth="yes"/>
      <point x="608" y="245" type="line" smooth="yes"/>
      <point x="633" y="245"/>
      <point x="641" y="244"/>
      <point x="645" y="234" type="curve" smooth="yes"/>
      <point x="667" y="184"/>
      <point x="703" y="111"/>
      <point x="703" y="82" type="curve" smooth="yes"/>
      <point x="703" y="60"/>
      <point x="683" y="45"/>
      <point x="631" y="38" type="curve" smooth="yes"/>
      <point x="609" y="34"/>
      <point x="591" y="26"/>
      <point x="591" y="15" type="curve" smooth="yes"/>
      <point x="591" y="6"/>
      <point x="606" y="1"/>
      <point x="627" y="1" type="curve" smooth="yes"/>
      <point x="657" y="1"/>
      <point x="709" y="2"/>
      <point x="754" y="2" type="curve" smooth="yes"/>
      <point x="809" y="2"/>
      <point x="891" y="-5"/>
      <point x="926" y="-5" type="curve" smooth="yes"/>
      <point x="947" y="-5"/>
      <point x="962" y="-3"/>
      <point x="962" y="7" type="curve" smooth="yes"/>
      <point x="962" y="18"/>
      <point x="949" y="30"/>
      <point x="918" y="34" type="curve" smooth="yes"/>
      <point x="867" y="41"/>
      <point x="827" y="56"/>
      <point x="788" y="134" type="curve" smooth="yes"/>
      <point x="740" y="229"/>
      <point x="627" y="462"/>
      <point x="536" y="661" type="curve" smooth="yes"/>
      <point x="531" y="670"/>
      <point x="529" y="678"/>
      <point x="525" y="684" type="curve"/>
      <point x="523" y="686"/>
      <point x="518" y="686"/>
      <point x="516" y="685" type="curve"/>
      <point x="510" y="679"/>
      <point x="504" y="659"/>
      <point x="485" y="651" type="curve" smooth="yes"/>
      <point x="464" y="643"/>
      <point x="445" y="640"/>
      <point x="424" y="636" type="curve"/>
      <point x="422" y="615"/>
      <point x="415" y="597"/>
      <point x="405" y="578" type="curve" smooth="yes"/>
      <point x="312" y="393"/>
      <point x="257" y="287"/>
      <point x="155" y="115" type="curve" smooth="yes"/>
      <point x="125" y="66"/>
      <point x="85" y="47"/>
      <point x="42" y="38" type="curve" smooth="yes"/>
      <point x="12" y="30"/>
      <point x="-3" y="21"/>
      <point x="-3" y="10" type="curve" smooth="yes"/>
      <point x="-3" y="1"/>
      <point x="13" y="-5"/>
      <point x="34" y="-5" type="curve" smooth="yes"/>
      <point x="76" y="-5"/>
      <point x="131" y="2"/>
    </contour>
    <contour>
      <point x="316" y="293" type="curve" smooth="yes"/>
      <point x="316" y="295"/>
      <point x="318" y="298"/>
      <point x="319" y="301" type="curve"/>
      <point x="443" y="543" type="line" smooth="yes"/>
      <point x="453" y="560"/>
      <point x="463" y="571"/>
      <point x="471" y="571" type="curve" smooth="yes"/>
      <point x="485" y="571"/>
      <point x="495" y="558"/>
      <point x="503" y="543" type="curve" smooth="yes"/>
      <point x="613" y="301" type="line"/>
      <point x="615" y="297"/>
      <point x="616" y="293"/>
      <point x="616" y="291" type="curve" smooth="yes"/>
      <point x="616" y="286"/>
      <point x="610" y="286"/>
      <point x="597" y="286" type="curve" smooth="yes"/>
      <point x="345" y="286" type="line" smooth="yes"/>
      <point x="327" y="286"/>
      <point x="316" y="286"/>
    </contour>
  </outline>
</glyph>
<glyph name="B" format="1">
  <advance width="823"/>
  <unicode hex="0042"/>
  <outline>
    <contour>
      <point x="251" y="0" type="curve" smooth="yes"/>
      <point x="308" y="0"/>
      <point x="360" y="-4"/>
      <point x="386" y="-4" type="curve" smooth="yes"/>
      <point x="483" y="-4"/>
      <point x="565" y="9"/>
      <point x="629" y="33" type="curve" smooth="yes"/>
      <point x="698" y="58"/>
      <point x="768" y="98"/>
      <point x="768" y="195" type="curve" smooth="yes"/>
      <point x="768" y="311"/>
      <point x="638" y="343"/>
      <point x="551" y="360" type="curve" smooth="yes"/>
      <point x="542" y="362"/>
      <point x="543" y="369"/>
      <point x="551" y="370" type="curve" smooth="yes"/>
      <point x="601" y="381"/>
      <point x="645" y="392"/>
      <point x="676" y="413" type="curve" smooth="yes"/>
      <point x="698" y="428"/>
      <point x="726" y="465"/>
      <point x="726" y="510" type="curve" smooth="yes"/>
      <point x="726" y="619"/>
      <point x="614" y="660"/>
      <point x="387" y="660" type="curve" smooth="yes"/>
      <point x="304" y="660"/>
      <point x="283" y="655"/>
      <point x="229" y="655" type="curve" smooth="yes"/>
      <point x="171" y="655"/>
      <point x="158" y="656"/>
      <point x="81" y="656" type="curve" smooth="yes"/>
      <point x="57" y="656"/>
      <point x="41" y="651"/>
      <point x="38" y="642" type="curve" smooth="yes"/>
      <point x="38" y="632"/>
      <point x="49" y="622"/>
      <point x="74" y="620" type="curve" smooth="yes"/>
      <point x="128" y="615"/>
      <point x="147" y="594"/>
      <point x="147" y="544" type="curve" smooth="yes"/>
      <point x="147" y="104" type="line" smooth="yes"/>
      <point x="147" y="56"/>
      <point x="117" y="38"/>
      <point x="62" y="29" type="curve" smooth="yes"/>
      <point x="37" y="24"/>
      <point x="26" y="19"/>
      <point x="26" y="8" type="curve" smooth="yes"/>
      <point x="26" y="-1"/>
      <point x="42" y="-5"/>
      <point x="66" y="-5" type="curve" smooth="yes"/>
      <point x="148" y="-5"/>
      <point x="177" y="0"/>
    </contour>
    <contour>
      <point x="236" y="113" type="curve" smooth="yes"/>
      <point x="236" y="305" type="line" smooth="yes"/>
      <point x="236" y="318"/>
      <point x="260" y="340"/>
      <point x="335" y="340" type="curve" smooth="yes"/>
      <point x="451" y="340"/>
      <point x="527" y="328"/>
      <point x="571" y="313" type="curve" smooth="yes"/>
      <point x="621" y="295"/>
      <point x="664" y="259"/>
      <point x="664" y="191" type="curve" smooth="yes"/>
      <point x="664" y="103"/>
      <point x="565" y="44"/>
      <point x="374" y="44" type="curve" smooth="yes"/>
      <point x="285" y="44"/>
      <point x="236" y="59"/>
    </contour>
    <contour>
      <point x="236" y="412" type="curve" smooth="yes"/>
      <point x="236" y="578" type="line" smooth="yes"/>
      <point x="236" y="607"/>
      <point x="257" y="621"/>
      <point x="359" y="621" type="curve" smooth="yes"/>
      <point x="589" y="621"/>
      <point x="631" y="558"/>
      <point x="631" y="495" type="curve" smooth="yes"/>
      <point x="631" y="439"/>
      <point x="573" y="412"/>
      <point x="547" y="404" type="curve" smooth="yes"/>
      <point x="474" y="383"/>
      <point x="393" y="376"/>
      <point x="322" y="376" type="curve" smooth="yes"/>
      <point x="292" y="376"/>
      <point x="236" y="378"/>
    </contour>
  </outline>
</glyph>
<glyph name="C" format="1">
  <advance width="961"/>
  <unicode hex="0043"/>
  <outline>
    <contour>
      <point x="816" y="13" type="curve" smooth="yes"/>
      <point x="844" y="20"/>
      <point x="848" y="20"/>
      <point x="859" y="41" type="curve" smooth="yes"/>
      <point x="872" y="70"/>
      <point x="886" y="127"/>
      <point x="886" y="144" type="curve" smooth="yes"/>
      <point x="887" y="167"/>
      <point x="858" y="170"/>
      <point x="846" y="148" type="curve" smooth="yes"/>
      <point x="799" y="63"/>
      <point x="737" y="24"/>
      <point x="561" y="24" type="curve" smooth="yes"/>
      <point x="324" y="24"/>
      <point x="174" y="187"/>
      <point x="174" y="346" type="curve" smooth="yes"/>
      <point x="174" y="489"/>
      <point x="332" y="624"/>
      <point x="551" y="624" type="curve" smooth="yes"/>
      <point x="666" y="624"/>
      <point x="731" y="614"/>
      <point x="771" y="591" type="curve" smooth="yes"/>
      <point x="809" y="568"/>
      <point x="825" y="536"/>
      <point x="842" y="484" type="curve" smooth="yes"/>
      <point x="851" y="458"/>
      <point x="882" y="468"/>
      <point x="881" y="485" type="curve" smooth="yes"/>
      <point x="878" y="537"/>
      <point x="873" y="573"/>
      <point x="870" y="604" type="curve" smooth="yes"/>
      <point x="868" y="622"/>
      <point x="858" y="633"/>
      <point x="831" y="638" type="curve" smooth="yes"/>
      <point x="741" y="655"/>
      <point x="693" y="664"/>
      <point x="590" y="664" type="curve" smooth="yes"/>
      <point x="310" y="664"/>
      <point x="63" y="519"/>
      <point x="63" y="323" type="curve" smooth="yes"/>
      <point x="63" y="118"/>
      <point x="300" y="-16"/>
      <point x="556" y="-16" type="curve" smooth="yes"/>
      <point x="643" y="-16"/>
      <point x="750" y="-6"/>
    </contour>
  </outline>
</glyph>
<glyph name="G" format="1">
  <advance width="1014"/>
  <unicode hex="0047"/>
  <outline>
    <contour>
      <point x="878" y="52" type="curve" smooth="yes"/>
      <point x="898" y="54"/>
      <point x="898" y="66"/>
      <point x="898" y="71" type="curve" smooth="yes"/>
      <point x="898" y="76"/>
      <point x="885" y="81"/>
      <point x="880" y="88" type="curve"/>
      <point x="876" y="94"/>
      <point x="872" y="97"/>
      <point x="872" y="104" type="curve" smooth="yes"/>
      <point x="872" y="131" type="line" smooth="yes"/>
      <point x="872" y="157"/>
      <point x="873" y="179"/>
      <point x="880" y="206" type="curve" smooth="yes"/>
      <point x="886" y="231"/>
      <point x="899" y="244"/>
      <point x="936" y="252" type="curve"/>
      <point x="943" y="253"/>
      <point x="965" y="262"/>
      <point x="965" y="272" type="curve" smooth="yes"/>
      <point x="965" y="287"/>
      <point x="946" y="290"/>
      <point x="940" y="290" type="curve" smooth="yes"/>
      <point x="895" y="290"/>
      <point x="873" y="286"/>
      <point x="830" y="286" type="curve" smooth="yes"/>
      <point x="762" y="286"/>
      <point x="735" y="290"/>
      <point x="675" y="290" type="curve" smooth="yes"/>
      <point x="667" y="290"/>
      <point x="649" y="282"/>
      <point x="649" y="270" type="curve" smooth="yes"/>
      <point x="649" y="257"/>
      <point x="668" y="250"/>
      <point x="675" y="250" type="curve" smooth="yes"/>
      <point x="698" y="250"/>
      <point x="770" y="240"/>
      <point x="790" y="220" type="curve" smooth="yes"/>
      <point x="795" y="216"/>
      <point x="796" y="205"/>
      <point x="796" y="192" type="curve" smooth="yes"/>
      <point x="796" y="176"/>
      <point x="794" y="154"/>
      <point x="794" y="139" type="curve" smooth="yes"/>
      <point x="794" y="106"/>
      <point x="776" y="80"/>
      <point x="759" y="66" type="curve" smooth="yes"/>
      <point x="740" y="52"/>
      <point x="687" y="30"/>
      <point x="564" y="30" type="curve" smooth="yes"/>
      <point x="364" y="30"/>
      <point x="170" y="138"/>
      <point x="170" y="324" type="curve" smooth="yes"/>
      <point x="170" y="479"/>
      <point x="329" y="618"/>
      <point x="562" y="618" type="curve" smooth="yes"/>
      <point x="703" y="618"/>
      <point x="779" y="582"/>
      <point x="799" y="563" type="curve" smooth="yes"/>
      <point x="815" y="546"/>
      <point x="822" y="533"/>
      <point x="831" y="512" type="curve"/>
      <point x="835" y="500"/>
      <point x="841" y="485"/>
      <point x="856" y="485" type="curve" smooth="yes"/>
      <point x="867" y="485"/>
      <point x="875" y="495"/>
      <point x="875" y="505" type="curve" smooth="yes"/>
      <point x="875" y="533"/>
      <point x="868" y="577"/>
      <point x="861" y="619" type="curve" smooth="yes"/>
      <point x="860" y="626"/>
      <point x="857" y="628"/>
      <point x="849" y="631" type="curve" smooth="yes"/>
      <point x="812" y="644"/>
      <point x="638" y="664"/>
      <point x="575" y="664" type="curve" smooth="yes"/>
      <point x="297" y="664"/>
      <point x="62" y="511"/>
      <point x="62" y="311" type="curve" smooth="yes"/>
      <point x="62" y="126"/>
      <point x="287" y="-15"/>
      <point x="546" y="-15" type="curve" smooth="yes"/>
      <point x="726" y="-15"/>
      <point x="851" y="49"/>
    </contour>
  </outline>
</glyph>
<glyph name="R" format="1">
  <advance width="995"/>
  <unicode hex="0052"/>
  <outline>
    <contour>
      <point x="1011" y="18" type="curve" smooth="yes"/>
      <point x="1011" y="27"/>
      <point x="1004" y="30"/>
      <point x="991" y="30" type="curve" smooth="yes"/>
      <point x="926" y="30"/>
      <point x="881" y="33"/>
      <point x="833" y="62" type="curve" smooth="yes"/>
      <point x="692" y="148"/>
      <point x="637" y="219"/>
      <point x="552" y="311" type="curve" smooth="yes"/>
      <point x="546" y="317"/>
      <point x="545" y="322"/>
      <point x="552" y="324" type="curve"/>
      <point x="627" y="352"/>
      <point x="717" y="403"/>
      <point x="717" y="493" type="curve" smooth="yes"/>
      <point x="717" y="603"/>
      <point x="605" y="657"/>
      <point x="395" y="657" type="curve" smooth="yes"/>
      <point x="315" y="657"/>
      <point x="288" y="652"/>
      <point x="235" y="652" type="curve" smooth="yes"/>
      <point x="179" y="652"/>
      <point x="167" y="654"/>
      <point x="85" y="654" type="curve" smooth="yes"/>
      <point x="65" y="654"/>
      <point x="52" y="649"/>
      <point x="52" y="640" type="curve" smooth="yes"/>
      <point x="52" y="629"/>
      <point x="63" y="621"/>
      <point x="88" y="618" type="curve" smooth="yes"/>
      <point x="150" y="610"/>
      <point x="160" y="596"/>
      <point x="160" y="524" type="curve" smooth="yes"/>
      <point x="160" y="108" type="line" smooth="yes"/>
      <point x="160" y="56"/>
      <point x="145" y="40"/>
      <point x="81" y="29" type="curve" smooth="yes"/>
      <point x="56" y="25"/>
      <point x="45" y="19"/>
      <point x="45" y="9" type="curve" smooth="yes"/>
      <point x="45" y="-1"/>
      <point x="59" y="-5"/>
      <point x="78" y="-5" type="curve" smooth="yes"/>
      <point x="135" y="-5"/>
      <point x="164" y="2"/>
      <point x="211" y="2" type="curve" smooth="yes"/>
      <point x="249" y="2"/>
      <point x="287" y="-5"/>
      <point x="332" y="-5" type="curve" smooth="yes"/>
      <point x="352" y="-5"/>
      <point x="366" y="-1"/>
      <point x="366" y="9" type="curve" smooth="yes"/>
      <point x="366" y="19"/>
      <point x="355" y="25"/>
      <point x="328" y="29" type="curve" smooth="yes"/>
      <point x="269" y="39"/>
      <point x="250" y="70"/>
      <point x="250" y="118" type="curve" smooth="yes"/>
      <point x="250" y="284" type="line" smooth="yes"/>
      <point x="250" y="296"/>
      <point x="258" y="305"/>
      <point x="281" y="304" type="curve" smooth="yes"/>
      <point x="360" y="301"/>
      <point x="406" y="297"/>
      <point x="448" y="283" type="curve" smooth="yes"/>
      <point x="477" y="273"/>
      <point x="494" y="263"/>
      <point x="510" y="244" type="curve" smooth="yes"/>
      <point x="592" y="140"/>
      <point x="634" y="97"/>
      <point x="718" y="33" type="curve" smooth="yes"/>
      <point x="766" y="-6"/>
      <point x="829" y="-21"/>
      <point x="904" y="-21" type="curve" smooth="yes"/>
      <point x="937" y="-21"/>
      <point x="1011" y="-15"/>
    </contour>
    <contour>
      <point x="250" y="369" type="curve" smooth="yes"/>
      <point x="250" y="445"/>
      <point x="251" y="498"/>
      <point x="253" y="530" type="curve" smooth="yes"/>
      <point x="258" y="595"/>
      <point x="273" y="618"/>
      <point x="351" y="618" type="curve" smooth="yes"/>
      <point x="577" y="618"/>
      <point x="617" y="559"/>
      <point x="617" y="476" type="curve" smooth="yes"/>
      <point x="617" y="400"/>
      <point x="515" y="336"/>
      <point x="346" y="336" type="curve" smooth="yes"/>
      <point x="286" y="336"/>
      <point x="250" y="338"/>
    </contour>
  </outline>
</glyph>
<glyph name="W" format="1">
  <advance width="1258"/>
  <unicode hex="0057"/>
  <outline>
    <contour>
      <point x="490" y="14" type="curve" smooth="yes"/>
      <point x="549" y="130"/>
      <point x="582" y="191"/>
      <point x="646" y="304" type="curve" smooth="yes"/>
      <point x="654" y="317"/>
      <point x="656" y="319"/>
      <point x="661" y="310" type="curve"/>
      <point x="726" y="193"/>
      <point x="757" y="127"/>
      <point x="826" y="6" type="curve" smooth="yes"/>
      <point x="832" y="-3"/>
      <point x="847" y="-13"/>
      <point x="856" y="-13" type="curve" smooth="yes"/>
      <point x="869" y="-13"/>
      <point x="883" y="3"/>
      <point x="886" y="11" type="curve" smooth="yes"/>
      <point x="1122" y="529" type="line"/>
      <point x="1145" y="572"/>
      <point x="1168" y="608"/>
      <point x="1226" y="618" type="curve" smooth="yes"/>
      <point x="1258" y="624"/>
      <point x="1272" y="631"/>
      <point x="1272" y="641" type="curve" smooth="yes"/>
      <point x="1272" y="651"/>
      <point x="1256" y="654"/>
      <point x="1232" y="654" type="curve" smooth="yes"/>
      <point x="1200" y="654"/>
      <point x="1165" y="651"/>
      <point x="1120" y="651" type="curve" smooth="yes"/>
      <point x="1088" y="651"/>
      <point x="1072" y="652"/>
      <point x="1037" y="652" type="curve" smooth="yes"/>
      <point x="1014" y="652"/>
      <point x="997" y="648"/>
      <point x="997" y="639" type="curve" smooth="yes"/>
      <point x="997" y="628"/>
      <point x="1022" y="621"/>
      <point x="1040" y="616" type="curve" smooth="yes"/>
      <point x="1069" y="610"/>
      <point x="1076" y="594"/>
      <point x="1076" y="574" type="curve" smooth="yes"/>
      <point x="1076" y="563"/>
      <point x="1073" y="550"/>
      <point x="1068" y="537" type="curve"/>
      <point x="1008" y="394"/>
      <point x="932" y="219"/>
      <point x="884" y="133" type="curve"/>
      <point x="879" y="124"/>
      <point x="873" y="120"/>
      <point x="869" y="127" type="curve" smooth="yes"/>
      <point x="724" y="393" type="line"/>
      <point x="719" y="400"/>
      <point x="726" y="421"/>
      <point x="732" y="431" type="curve" smooth="yes"/>
      <point x="755" y="473"/>
      <point x="801" y="549"/>
      <point x="816" y="568" type="curve" smooth="yes"/>
      <point x="840" y="599"/>
      <point x="855" y="611"/>
      <point x="901" y="619" type="curve" smooth="yes"/>
      <point x="932" y="624"/>
      <point x="946" y="631"/>
      <point x="946" y="642" type="curve" smooth="yes"/>
      <point x="946" y="651"/>
      <point x="930" y="654"/>
      <point x="907" y="654" type="curve" smooth="yes"/>
      <point x="879" y="654"/>
      <point x="862" y="651"/>
      <point x="831" y="651" type="curve" smooth="yes"/>
      <point x="805" y="651"/>
      <point x="805" y="653"/>
      <point x="765" y="653" type="curve" smooth="yes"/>
      <point x="742" y="653"/>
      <point x="726" y="650"/>
      <point x="726" y="640" type="curve" smooth="yes"/>
      <point x="726" y="623"/>
      <point x="771" y="620"/>
      <point x="771" y="595" type="curve" smooth="yes"/>
      <point x="771" y="590"/>
      <point x="769" y="582"/>
      <point x="767" y="578" type="curve"/>
      <point x="757" y="558"/>
      <point x="733" y="508"/>
      <point x="705" y="466" type="curve" smooth="yes"/>
      <point x="694" y="447"/>
      <point x="690" y="449"/>
      <point x="680" y="466" type="curve" smooth="yes"/>
      <point x="669" y="485"/>
      <point x="614" y="577"/>
      <point x="608" y="589" type="curve" smooth="yes"/>
      <point x="607" y="592"/>
      <point x="606" y="594"/>
      <point x="606" y="597" type="curve" smooth="yes"/>
      <point x="606" y="621"/>
      <point x="661" y="623"/>
      <point x="661" y="640" type="curve" smooth="yes"/>
      <point x="661" y="649"/>
      <point x="644" y="653"/>
      <point x="621" y="653" type="curve" smooth="yes"/>
      <point x="598" y="653"/>
      <point x="562" y="651"/>
      <point x="524" y="651" type="curve" smooth="yes"/>
      <point x="483" y="651"/>
      <point x="460" y="654"/>
      <point x="424" y="654" type="curve" smooth="yes"/>
      <point x="401" y="654"/>
      <point x="384" y="651"/>
      <point x="384" y="641" type="curve" smooth="yes"/>
      <point x="384" y="631"/>
      <point x="400" y="624"/>
      <point x="431" y="616" type="curve" smooth="yes"/>
      <point x="476" y="606"/>
      <point x="514" y="580"/>
      <point x="539" y="535" type="curve" smooth="yes"/>
      <point x="618" y="395" type="line" smooth="yes"/>
      <point x="625" y="382"/>
      <point x="629" y="374"/>
      <point x="629" y="366" type="curve" smooth="yes"/>
      <point x="629" y="360"/>
      <point x="626" y="353"/>
      <point x="621" y="343" type="curve" smooth="yes"/>
      <point x="501" y="135" type="line"/>
      <point x="496" y="124"/>
      <point x="490" y="121"/>
      <point x="481" y="136" type="curve" smooth="yes"/>
      <point x="390" y="286"/>
      <point x="326" y="386"/>
      <point x="242" y="542" type="curve"/>
      <point x="241" y="545"/>
      <point x="231" y="565"/>
      <point x="231" y="585" type="curve" smooth="yes"/>
      <point x="231" y="600"/>
      <point x="236" y="613"/>
      <point x="257" y="617" type="curve" smooth="yes"/>
      <point x="289" y="624"/>
      <point x="302" y="630"/>
      <point x="302" y="640" type="curve" smooth="yes"/>
      <point x="302" y="650"/>
      <point x="285" y="653"/>
      <point x="261" y="653" type="curve" smooth="yes"/>
      <point x="236" y="653"/>
      <point x="190" y="651"/>
      <point x="142" y="651" type="curve" smooth="yes"/>
      <point x="98" y="651"/>
      <point x="77" y="654"/>
      <point x="37" y="654" type="curve" smooth="yes"/>
      <point x="15" y="654"/>
      <point x="0" y="651"/>
      <point x="0" y="641" type="curve" smooth="yes"/>
      <point x="0" y="631"/>
      <point x="15" y="624"/>
      <point x="48" y="615" type="curve" smooth="yes"/>
      <point x="93" y="605"/>
      <point x="113" y="584"/>
      <point x="135" y="549" type="curve"/>
      <point x="426" y="12" type="line" smooth="yes"/>
      <point x="434" y="-2"/>
      <point x="446" y="-17"/>
      <point x="451" y="-17" type="curve" smooth="yes"/>
      <point x="465" y="-17"/>
      <point x="483" y="0"/>
    </contour>
  </outline>
</glyph>
<glyph name="X" format="1">
  <advance width="979"/>
  <unicode hex="0058"/>
  <outline>
    <contour>
      <point x="205" y="1" type="curve" smooth="yes"/>
      <point x="239" y="1"/>
      <point x="274" y="-1"/>
      <point x="291" y="-1" type="curve" smooth="yes"/>
      <point x="308" y="-1"/>
      <point x="320" y="3"/>
      <point x="320" y="13" type="curve" smooth="yes"/>
      <point x="320" y="23"/>
      <point x="310" y="28"/>
      <point x="288" y="35" type="curve"/>
      <point x="270" y="41"/>
      <point x="257" y="51"/>
      <point x="257" y="65" type="curve" smooth="yes"/>
      <point x="256" y="73"/>
      <point x="262" y="84"/>
      <point x="276" y="95" type="curve" smooth="yes"/>
      <point x="465" y="269" type="line" smooth="yes"/>
      <point x="474" y="278"/>
      <point x="481" y="278"/>
      <point x="495" y="264" type="curve" smooth="yes"/>
      <point x="667" y="106" type="line"/>
      <point x="677" y="95"/>
      <point x="681" y="85"/>
      <point x="681" y="75" type="curve" smooth="yes"/>
      <point x="681" y="55"/>
      <point x="661" y="41"/>
      <point x="638" y="36" type="curve" smooth="yes"/>
      <point x="621" y="31"/>
      <point x="596" y="24"/>
      <point x="596" y="14" type="curve" smooth="yes"/>
      <point x="596" y="5"/>
      <point x="612" y="0"/>
      <point x="634" y="0" type="curve" smooth="yes"/>
      <point x="666" y="0"/>
      <point x="690" y="1"/>
      <point x="741" y="1" type="curve" smooth="yes"/>
      <point x="803" y="1"/>
      <point x="893" y="-5"/>
      <point x="930" y="-5" type="curve" smooth="yes"/>
      <point x="952" y="-5"/>
      <point x="968" y="-2"/>
      <point x="968" y="8" type="curve" smooth="yes"/>
      <point x="968" y="18"/>
      <point x="954" y="24"/>
      <point x="921" y="31" type="curve" smooth="yes"/>
      <point x="869" y="41"/>
      <point x="814" y="74"/>
      <point x="773" y="116" type="curve" smooth="yes"/>
      <point x="556" y="327" type="line"/>
      <point x="547" y="342"/>
      <point x="551" y="345"/>
      <point x="575" y="367" type="curve" smooth="yes"/>
      <point x="739" y="510" type="line" smooth="yes"/>
      <point x="798" y="562"/>
      <point x="870" y="610"/>
      <point x="919" y="620" type="curve" smooth="yes"/>
      <point x="952" y="627"/>
      <point x="965" y="632"/>
      <point x="965" y="642" type="curve" smooth="yes"/>
      <point x="965" y="652"/>
      <point x="949" y="656"/>
      <point x="926" y="656" type="curve" smooth="yes"/>
      <point x="888" y="656"/>
      <point x="822" y="650"/>
      <point x="767" y="650" type="curve" smooth="yes"/>
      <point x="738" y="650"/>
      <point x="706" y="651"/>
      <point x="674" y="651" type="curve" smooth="yes"/>
      <point x="651" y="651"/>
      <point x="634" y="647"/>
      <point x="634" y="638" type="curve" smooth="yes"/>
      <point x="634" y="627"/>
      <point x="659" y="619"/>
      <point x="678" y="616" type="curve" smooth="yes"/>
      <point x="709" y="611"/>
      <point x="725" y="602"/>
      <point x="725" y="587" type="curve" smooth="yes"/>
      <point x="725" y="577"/>
      <point x="716" y="563"/>
      <point x="701" y="549" type="curve" smooth="yes"/>
      <point x="534" y="391" type="line" smooth="yes"/>
      <point x="519" y="376"/>
      <point x="514" y="373"/>
      <point x="494" y="394" type="curve" smooth="yes"/>
      <point x="338" y="538" type="line" smooth="yes"/>
      <point x="313" y="564"/>
      <point x="304" y="578"/>
      <point x="304" y="588" type="curve" smooth="yes"/>
      <point x="304" y="604"/>
      <point x="327" y="609"/>
      <point x="354" y="616" type="curve" smooth="yes"/>
      <point x="375" y="622"/>
      <point x="387" y="627"/>
      <point x="387" y="638" type="curve" smooth="yes"/>
      <point x="387" y="647"/>
      <point x="375" y="652"/>
      <point x="357" y="652" type="curve" smooth="yes"/>
      <point x="336" y="652"/>
      <point x="293" y="650"/>
      <point x="254" y="650" type="curve" smooth="yes"/>
      <point x="188" y="650"/>
      <point x="107" y="655"/>
      <point x="64" y="655" type="curve" smooth="yes"/>
      <point x="41" y="655"/>
      <point x="25" y="652"/>
      <point x="25" y="643" type="curve" smooth="yes"/>
      <point x="25" y="632"/>
      <point x="40" y="625"/>
      <point x="72" y="618" type="curve" smooth="yes"/>
      <point x="119" y="607"/>
      <point x="165" y="590"/>
      <point x="231" y="526" type="curve" smooth="yes"/>
      <point x="417" y="345" type="line" smooth="yes"/>
      <point x="443" y="319"/>
      <point x="429" y="303"/>
      <point x="410" y="284" type="curve"/>
      <point x="233" y="126" type="line" smooth="yes"/>
      <point x="176" y="75"/>
      <point x="84" y="42"/>
      <point x="39" y="33" type="curve" smooth="yes"/>
      <point x="8" y="26"/>
      <point x="-7" y="19"/>
      <point x="-7" y="9" type="curve" smooth="yes"/>
      <point x="-7" y="0"/>
      <point x="10" y="-5"/>
      <point x="33" y="-5" type="curve" smooth="yes"/>
      <point x="78" y="-5"/>
      <point x="144" y="1"/>
    </contour>
  </outline>
</glyph>
<glyph name="i" format="1">
  <advance width="286"/>
  <unicode hex="0069"/>
  <outline>
    <contour>
      <point x="146" y="2" type="curve" smooth="yes"/>
      <point x="186" y="3"/>
      <point x="194" y="-3"/>
      <point x="237" y="-3" type="curve" smooth="yes"/>
      <point x="252" y="-3"/>
      <point x="260" y="1"/>
      <point x="260" y="10" type="curve" smooth="yes"/>
      <point x="260" y="21"/>
      <point x="249" y="25"/>
      <point x="234" y="29" type="curve" smooth="yes"/>
      <point x="207" y="36"/>
      <point x="185" y="44"/>
      <point x="185" y="70" type="curve" smooth="yes"/>
      <point x="185" y="297" type="line" smooth="yes"/>
      <point x="185" y="338"/>
      <point x="193" y="405"/>
      <point x="193" y="423" type="curve" smooth="yes"/>
      <point x="193" y="428"/>
      <point x="190" y="433"/>
      <point x="186" y="433" type="curve" smooth="yes"/>
      <point x="180" y="433"/>
      <point x="173" y="429"/>
      <point x="168" y="425" type="curve" smooth="yes"/>
      <point x="146" y="408"/>
      <point x="113" y="391"/>
      <point x="58" y="381" type="curve" smooth="yes"/>
      <point x="51" y="379"/>
      <point x="47" y="374"/>
      <point x="47" y="366" type="curve" smooth="yes"/>
      <point x="47" y="358"/>
      <point x="51" y="353"/>
      <point x="58" y="351" type="curve" smooth="yes"/>
      <point x="92" y="344"/>
      <point x="108" y="319"/>
      <point x="108" y="275" type="curve" smooth="yes"/>
      <point x="108" y="70" type="line" smooth="yes"/>
      <point x="108" y="43"/>
      <point x="87" y="36"/>
      <point x="59" y="29" type="curve" smooth="yes"/>
      <point x="44" y="25"/>
      <point x="33" y="22"/>
      <point x="33" y="10" type="curve" smooth="yes"/>
      <point x="33" y="1"/>
      <point x="42" y="-3"/>
      <point x="55" y="-3" type="curve" smooth="yes"/>
      <point x="100" y="-3"/>
      <point x="107" y="2"/>
    </contour>
    <contour>
      <point x="200" y="566" type="curve" smooth="yes"/>
      <point x="200" y="595"/>
      <point x="177" y="617"/>
      <point x="145" y="617" type="curve" smooth="yes"/>
      <point x="115" y="617"/>
      <point x="92" y="595"/>
      <point x="92" y="566" type="curve" smooth="yes"/>
      <point x="92" y="538"/>
      <point x="115" y="516"/>
      <point x="145" y="516" type="curve" smooth="yes"/>
      <point x="177" y="516"/>
      <point x="200" y="538"/>
    </contour>
  </outline>
</glyph>
<glyph name="k" format="1">
  <advance width="655"/>
  <unicode hex="006B"/>
  <outline>
    <contour>
      <point x="147" y="3" type="curve" smooth="yes"/>
      <point x="186" y="3"/>
      <point x="182" y="-3"/>
      <point x="226" y="-3" type="curve" smooth="yes"/>
      <point x="233" y="-3"/>
      <point x="259" y="-2"/>
      <point x="259" y="10" type="curve" smooth="yes"/>
      <point x="259" y="22"/>
      <point x="243" y="25"/>
      <point x="227" y="29" type="curve" smooth="yes"/>
      <point x="199" y="36"/>
      <point x="179" y="46"/>
      <point x="179" y="75" type="curve" smooth="yes"/>
      <point x="179" y="96"/>
      <point x="178" y="118"/>
      <point x="178" y="137" type="curve" smooth="yes"/>
      <point x="178" y="160"/>
      <point x="178" y="180"/>
      <point x="180" y="199" type="curve"/>
      <point x="180" y="204"/>
      <point x="183" y="206"/>
      <point x="188" y="206" type="curve" smooth="yes"/>
      <point x="195" y="206"/>
      <point x="198" y="204"/>
      <point x="204" y="199" type="curve" smooth="yes"/>
      <point x="411" y="63" type="line"/>
      <point x="416" y="59"/>
      <point x="420" y="54"/>
      <point x="420" y="50" type="curve" smooth="yes"/>
      <point x="420" y="40"/>
      <point x="404" y="34"/>
      <point x="385" y="29" type="curve" smooth="yes"/>
      <point x="372" y="26"/>
      <point x="362" y="21"/>
      <point x="362" y="12" type="curve" smooth="yes"/>
      <point x="362" y="6"/>
      <point x="367" y="1"/>
      <point x="387" y="1" type="curve" smooth="yes"/>
      <point x="482" y="1"/>
      <point x="564" y="-3"/>
      <point x="637" y="-3" type="curve" smooth="yes"/>
      <point x="654" y="-3"/>
      <point x="665" y="-1"/>
      <point x="665" y="10" type="curve" smooth="yes"/>
      <point x="665" y="21"/>
      <point x="644" y="26"/>
      <point x="624" y="30" type="curve" smooth="yes"/>
      <point x="592" y="38"/>
      <point x="547" y="59"/>
      <point x="514" y="80" type="curve" smooth="yes"/>
      <point x="484" y="98"/>
      <point x="365" y="170"/>
      <point x="293" y="225" type="curve" smooth="yes"/>
      <point x="290" y="227"/>
      <point x="289" y="230"/>
      <point x="289" y="232" type="curve" smooth="yes"/>
      <point x="289" y="235"/>
      <point x="291" y="238"/>
      <point x="297" y="242" type="curve" smooth="yes"/>
      <point x="364" y="283"/>
      <point x="486" y="342"/>
      <point x="504" y="350" type="curve" smooth="yes"/>
      <point x="527" y="361"/>
      <point x="555" y="373"/>
      <point x="588" y="381" type="curve" smooth="yes"/>
      <point x="607" y="385"/>
      <point x="622" y="392"/>
      <point x="622" y="401" type="curve" smooth="yes"/>
      <point x="622" y="407"/>
      <point x="616" y="412"/>
      <point x="603" y="412" type="curve" smooth="yes"/>
      <point x="577" y="412"/>
      <point x="524" y="400"/>
      <point x="482" y="400" type="curve" smooth="yes"/>
      <point x="415" y="400" type="line" smooth="yes"/>
      <point x="396" y="400"/>
      <point x="385" y="394"/>
      <point x="385" y="386" type="curve" smooth="yes"/>
      <point x="385" y="379"/>
      <point x="389" y="377"/>
      <point x="401" y="375" type="curve" smooth="yes"/>
      <point x="417" y="372"/>
      <point x="432" y="367"/>
      <point x="432" y="361" type="curve" smooth="yes"/>
      <point x="432" y="358"/>
      <point x="429" y="354"/>
      <point x="418" y="347" type="curve" smooth="yes"/>
      <point x="396" y="333"/>
      <point x="336" y="296"/>
      <point x="244" y="249" type="curve" smooth="yes"/>
      <point x="220" y="236"/>
      <point x="200" y="230"/>
      <point x="187" y="230" type="curve" smooth="yes"/>
      <point x="182" y="230"/>
      <point x="179" y="233"/>
      <point x="179" y="239" type="curve" smooth="yes"/>
      <point x="179" y="562" type="line" smooth="yes"/>
      <point x="179" y="647"/>
      <point x="192" y="682"/>
      <point x="192" y="696" type="curve" smooth="yes"/>
      <point x="192" y="702"/>
      <point x="189" y="705"/>
      <point x="183" y="705" type="curve" smooth="yes"/>
      <point x="179" y="705"/>
      <point x="176" y="704"/>
      <point x="169" y="701" type="curve" smooth="yes"/>
      <point x="138" y="689"/>
      <point x="108" y="677"/>
      <point x="55" y="667" type="curve" smooth="yes"/>
      <point x="48" y="665"/>
      <point x="43" y="660"/>
      <point x="40" y="652" type="curve" smooth="yes"/>
      <point x="40" y="644"/>
      <point x="44" y="638"/>
      <point x="52" y="637" type="curve" smooth="yes"/>
      <point x="89" y="629"/>
      <point x="103" y="611"/>
      <point x="103" y="563" type="curve" smooth="yes"/>
      <point x="103" y="75" type="line" smooth="yes"/>
      <point x="103" y="45"/>
      <point x="76" y="35"/>
      <point x="53" y="29" type="curve" smooth="yes"/>
      <point x="40" y="25"/>
      <point x="26" y="23"/>
      <point x="26" y="10" type="curve" smooth="yes"/>
      <point x="26" y="0"/>
      <point x="37" y="-3"/>
      <point x="57" y="-3" type="curve" smooth="yes"/>
      <point x="102" y="-3"/>
      <point x="107" y="3"/>
    </contour>
  </outline>
</glyph>
<glyph name="n" format="1">
  <advance width="735"/>
  <unicode hex="006E"/>
  <outline>
    <contour>
      <point x="146" y="3" type="curve" smooth="yes"/>
      <point x="186" y="3"/>
      <point x="192" y="-3"/>
      <point x="237" y="-3" type="curve" smooth="yes"/>
      <point x="252" y="-3"/>
      <point x="260" y="1"/>
      <point x="260" y="10" type="curve" smooth="yes"/>
      <point x="260" y="20"/>
      <point x="252" y="24"/>
      <point x="234" y="29" type="curve" smooth="yes"/>
      <point x="211" y="34"/>
      <point x="185" y="41"/>
      <point x="185" y="70" type="curve" smooth="yes"/>
      <point x="185" y="295" type="line" smooth="yes"/>
      <point x="185" y="303"/>
      <point x="190" y="313"/>
      <point x="199" y="318" type="curve" smooth="yes"/>
      <point x="245" y="342"/>
      <point x="309" y="360"/>
      <point x="394" y="360" type="curve" smooth="yes"/>
      <point x="488" y="359"/>
      <point x="552" y="322"/>
      <point x="552" y="264" type="curve" smooth="yes"/>
      <point x="552" y="70" type="line" smooth="yes"/>
      <point x="552" y="41"/>
      <point x="526" y="35"/>
      <point x="503" y="29" type="curve" smooth="yes"/>
      <point x="488" y="24"/>
      <point x="477" y="20"/>
      <point x="477" y="8" type="curve" smooth="yes"/>
      <point x="477" y="-1"/>
      <point x="489" y="-3"/>
      <point x="499" y="-3" type="curve" smooth="yes"/>
      <point x="544" y="-3"/>
      <point x="552" y="3"/>
      <point x="591" y="3" type="curve" smooth="yes"/>
      <point x="630" y="3"/>
      <point x="636" y="-3"/>
      <point x="681" y="-3" type="curve" smooth="yes"/>
      <point x="692" y="-3"/>
      <point x="704" y="-1"/>
      <point x="704" y="8" type="curve" smooth="yes"/>
      <point x="704" y="20"/>
      <point x="692" y="24"/>
      <point x="678" y="29" type="curve"/>
      <point x="655" y="35"/>
      <point x="629" y="41"/>
      <point x="629" y="70" type="curve" smooth="yes"/>
      <point x="629" y="267" type="line" smooth="yes"/>
      <point x="629" y="349"/>
      <point x="552" y="414"/>
      <point x="448" y="414" type="curve" smooth="yes"/>
      <point x="346" y="414"/>
      <point x="264" y="392"/>
      <point x="190" y="347" type="curve"/>
      <point x="189" y="347"/>
      <point x="188" y="354"/>
      <point x="188" y="362" type="curve" smooth="yes"/>
      <point x="188" y="380"/>
      <point x="193" y="413"/>
      <point x="193" y="423" type="curve" smooth="yes"/>
      <point x="193" y="427"/>
      <point x="191" y="430"/>
      <point x="188" y="430" type="curve" smooth="yes"/>
      <point x="183" y="430"/>
      <point x="180" y="428"/>
      <point x="176" y="425" type="curve" smooth="yes"/>
      <point x="147" y="405"/>
      <point x="113" y="390"/>
      <point x="64" y="380" type="curve" smooth="yes"/>
      <point x="56" y="378"/>
      <point x="52" y="373"/>
      <point x="52" y="365" type="curve" smooth="yes"/>
      <point x="52" y="355"/>
      <point x="58" y="351"/>
      <point x="65" y="349" type="curve" smooth="yes"/>
      <point x="96" y="340"/>
      <point x="108" y="319"/>
      <point x="108" y="277" type="curve" smooth="yes"/>
      <point x="108" y="70" type="line" smooth="yes"/>
      <point x="108" y="41"/>
      <point x="82" y="34"/>
      <point x="59" y="29" type="curve" smooth="yes"/>
      <point x="42" y="24"/>
      <point x="33" y="22"/>
      <point x="33" y="10" type="curve" smooth="yes"/>
      <point x="33" y="1"/>
      <point x="42" y="-3"/>
      <point x="55" y="-3" type="curve" smooth="yes"/>
      <point x="100" y="-3"/>
      <point x="107" y="3"/>
    </contour>
  </outline>
</glyph>
<glyph name="r" format="1">
  <advance width="464"/>
  <unicode hex="0072"/>
  <outline>
    <contour>
      <point x="155" y="2" type="curve" smooth="yes"/>
      <point x="191" y="2"/>
      <point x="203" y="-3"/>
      <point x="252" y="-3" type="curve" smooth="yes"/>
      <point x="268" y="-3"/>
      <point x="275" y="0"/>
      <point x="275" y="9" type="curve" smooth="yes"/>
      <point x="275" y="20"/>
      <point x="264" y="23"/>
      <point x="249" y="28" type="curve" smooth="yes"/>
      <point x="209" y="40"/>
      <point x="189" y="49"/>
      <point x="189" y="71" type="curve" smooth="yes"/>
      <point x="189" y="253" type="line" smooth="yes"/>
      <point x="189" y="324"/>
      <point x="247" y="346"/>
      <point x="309" y="346" type="curve" smooth="yes"/>
      <point x="324" y="346"/>
      <point x="341" y="339"/>
      <point x="357" y="334" type="curve" smooth="yes"/>
      <point x="373" y="328"/>
      <point x="394" y="321"/>
      <point x="406" y="321" type="curve" smooth="yes"/>
      <point x="438" y="321"/>
      <point x="457" y="358"/>
      <point x="457" y="380" type="curve" smooth="yes"/>
      <point x="457" y="399"/>
      <point x="425" y="414"/>
      <point x="380" y="414" type="curve" smooth="yes"/>
      <point x="317" y="414"/>
      <point x="246" y="385"/>
      <point x="194" y="346" type="curve"/>
      <point x="193" y="346"/>
      <point x="192" y="347"/>
      <point x="192" y="348" type="curve"/>
      <point x="194" y="380"/>
      <point x="195" y="416"/>
      <point x="195" y="423" type="curve"/>
      <point x="195" y="427"/>
      <point x="193" y="430"/>
      <point x="190" y="430" type="curve" smooth="yes"/>
      <point x="187" y="430"/>
      <point x="182" y="428"/>
      <point x="173" y="423" type="curve" smooth="yes"/>
      <point x="150" y="410"/>
      <point x="106" y="386"/>
      <point x="65" y="376" type="curve" smooth="yes"/>
      <point x="60" y="375"/>
      <point x="54" y="368"/>
      <point x="54" y="362" type="curve" smooth="yes"/>
      <point x="54" y="356"/>
      <point x="59" y="349"/>
      <point x="65" y="347" type="curve" smooth="yes"/>
      <point x="105" y="340"/>
      <point x="112" y="312"/>
      <point x="112" y="274" type="curve" smooth="yes"/>
      <point x="112" y="70" type="line" smooth="yes"/>
      <point x="112" y="50"/>
      <point x="96" y="36"/>
      <point x="67" y="29" type="curve" smooth="yes"/>
      <point x="49" y="24"/>
      <point x="40" y="22"/>
      <point x="40" y="10" type="curve" smooth="yes"/>
      <point x="40" y="1"/>
      <point x="47" y="-3"/>
      <point x="63" y="-3" type="curve" smooth="yes"/>
      <point x="108" y="-3"/>
      <point x="115" y="2"/>
    </contour>
  </outline>
</glyph>
<glyph name="s" format="1">
  <advance width="446"/>
  <unicode hex="0073"/>
  <outline>
    <contour>
      <point x="403" y="108" type="curve" smooth="yes"/>
      <point x="403" y="170"/>
      <point x="350" y="202"/>
      <point x="245" y="244" type="curve" smooth="yes"/>
      <point x="155" y="277"/>
      <point x="130" y="295"/>
      <point x="130" y="325" type="curve" smooth="yes"/>
      <point x="130" y="362"/>
      <point x="163" y="382"/>
      <point x="240" y="382" type="curve" smooth="yes"/>
      <point x="311" y="382"/>
      <point x="335" y="365"/>
      <point x="356" y="316" type="curve" smooth="yes"/>
      <point x="358" y="311"/>
      <point x="368" y="306"/>
      <point x="377" y="306" type="curve" smooth="yes"/>
      <point x="383" y="306"/>
      <point x="389" y="309"/>
      <point x="389" y="314" type="curve" smooth="yes"/>
      <point x="389" y="342"/>
      <point x="378" y="380"/>
      <point x="365" y="395" type="curve"/>
      <point x="348" y="407"/>
      <point x="307" y="414"/>
      <point x="247" y="414" type="curve" smooth="yes"/>
      <point x="123" y="414"/>
      <point x="61" y="363"/>
      <point x="61" y="299" type="curve" smooth="yes"/>
      <point x="61" y="249"/>
      <point x="97" y="215"/>
      <point x="202" y="173" type="curve" smooth="yes"/>
      <point x="294" y="136"/>
      <point x="326" y="117"/>
      <point x="326" y="82" type="curve" smooth="yes"/>
      <point x="326" y="44"/>
      <point x="275" y="17"/>
      <point x="206" y="17" type="curve" smooth="yes"/>
      <point x="125" y="17"/>
      <point x="85" y="34"/>
      <point x="65" y="104" type="curve"/>
      <point x="63" y="111"/>
      <point x="57" y="113"/>
      <point x="51" y="113" type="curve" smooth="yes"/>
      <point x="43" y="113"/>
      <point x="36" y="110"/>
      <point x="36" y="103" type="curve"/>
      <point x="37" y="79"/>
      <point x="41" y="36"/>
      <point x="51" y="22" type="curve"/>
      <point x="86" y="-1"/>
      <point x="139" y="-14"/>
      <point x="197" y="-14" type="curve" smooth="yes"/>
      <point x="319" y="-14"/>
      <point x="403" y="36"/>
    </contour>
  </outline>
</glyph>
<glyph name="u" format="1">
  <advance width="726"/>
  <unicode hex="0075"/>
  <outline>
    <contour>
      <point x="569" y="-13" type="curve"/>
      <point x="601" y="-2"/>
      <point x="640" y="13"/>
      <point x="696" y="19" type="curve" smooth="yes"/>
      <point x="706" y="20"/>
      <point x="712" y="23"/>
      <point x="712" y="35" type="curve" smooth="yes"/>
      <point x="712" y="48"/>
      <point x="703" y="50"/>
      <point x="695" y="50" type="curve" smooth="yes"/>
      <point x="683" y="50"/>
      <point x="656" y="47"/>
      <point x="645" y="47" type="curve" smooth="yes"/>
      <point x="634" y="47"/>
      <point x="625" y="61"/>
      <point x="625" y="99" type="curve" smooth="yes"/>
      <point x="625" y="326" type="line" smooth="yes"/>
      <point x="625" y="342"/>
      <point x="631" y="388"/>
      <point x="633" y="395" type="curve" smooth="yes"/>
      <point x="635" y="399"/>
      <point x="635" y="402"/>
      <point x="635" y="404" type="curve" smooth="yes"/>
      <point x="635" y="411"/>
      <point x="629" y="415"/>
      <point x="621" y="415" type="curve" smooth="yes"/>
      <point x="618" y="415"/>
      <point x="613" y="414"/>
      <point x="609" y="413" type="curve"/>
      <point x="565" y="404"/>
      <point x="536" y="399"/>
      <point x="474" y="398" type="curve" smooth="yes"/>
      <point x="461" y="398"/>
      <point x="452" y="394"/>
      <point x="452" y="381" type="curve" smooth="yes"/>
      <point x="452" y="367"/>
      <point x="462" y="363"/>
      <point x="476" y="363" type="curve" smooth="yes"/>
      <point x="503" y="363"/>
      <point x="549" y="353"/>
      <point x="549" y="311" type="curve" smooth="yes"/>
      <point x="549" y="140" type="line" smooth="yes"/>
      <point x="549" y="103"/>
      <point x="527" y="80"/>
      <point x="472" y="64" type="curve" smooth="yes"/>
      <point x="429" y="48"/>
      <point x="387" y="45"/>
      <point x="328" y="45" type="curve" smooth="yes"/>
      <point x="252" y="45"/>
      <point x="184" y="88"/>
      <point x="184" y="136" type="curve" smooth="yes"/>
      <point x="184" y="323" type="line" smooth="yes"/>
      <point x="184" y="353"/>
      <point x="187" y="369"/>
      <point x="193" y="400" type="curve" smooth="yes"/>
      <point x="194" y="411"/>
      <point x="187" y="414"/>
      <point x="178" y="414" type="curve" smooth="yes"/>
      <point x="175" y="414"/>
      <point x="174" y="414"/>
      <point x="169" y="413" type="curve" smooth="yes"/>
      <point x="126" y="404"/>
      <point x="106" y="400"/>
      <point x="56" y="397" type="curve" smooth="yes"/>
      <point x="47" y="396"/>
      <point x="40" y="392"/>
      <point x="40" y="379" type="curve" smooth="yes"/>
      <point x="40" y="367"/>
      <point x="47" y="364"/>
      <point x="57" y="361" type="curve"/>
      <point x="92" y="349"/>
      <point x="108" y="334"/>
      <point x="108" y="301" type="curve" smooth="yes"/>
      <point x="108" y="110" type="line" smooth="yes"/>
      <point x="108" y="29"/>
      <point x="185" y="-14"/>
      <point x="286" y="-14" type="curve" smooth="yes"/>
      <point x="383" y="-14"/>
      <point x="463" y="6"/>
      <point x="545" y="57" type="curve"/>
      <point x="545" y="55"/>
      <point x="545" y="53"/>
      <point x="545" y="51" type="curve" smooth="yes"/>
      <point x="545" y="34"/>
      <point x="539" y="2"/>
      <point x="539" y="-11" type="curve" smooth="yes"/>
      <point x="539" y="-16"/>
      <point x="542" y="-19"/>
      <point x="547" y="-19" type="curve" smooth="yes"/>
      <point x="554" y="-19"/>
      <point x="565" y="-15"/>
    </contour>
  </outline>
</glyph>
<glyph name="x" format="1">
  <advance width="596"/>
  <unicode hex="0078"/>
  <outline>
    <contour>
      <point x="133" y="1" type="curve" smooth="yes"/>
      <point x="155" y="1"/>
      <point x="186" y="-1"/>
      <point x="201" y="-1" type="curve" smooth="yes"/>
      <point x="208" y="-1"/>
      <point x="233" y="-1"/>
      <point x="233" y="11" type="curve" smooth="yes"/>
      <point x="233" y="22"/>
      <point x="217" y="26"/>
      <point x="203" y="30" type="curve"/>
      <point x="190" y="33"/>
      <point x="184" y="42"/>
      <point x="184" y="50" type="curve" smooth="yes"/>
      <point x="184" y="58"/>
      <point x="188" y="67"/>
      <point x="193" y="72" type="curve" smooth="yes"/>
      <point x="285" y="170" type="line" smooth="yes"/>
      <point x="287" y="171"/>
      <point x="292" y="171"/>
      <point x="294" y="170" type="curve" smooth="yes"/>
      <point x="378" y="74" type="line" smooth="yes"/>
      <point x="386" y="65"/>
      <point x="390" y="59"/>
      <point x="390" y="53" type="curve" smooth="yes"/>
      <point x="390" y="42"/>
      <point x="377" y="36"/>
      <point x="358" y="32" type="curve" smooth="yes"/>
      <point x="338" y="27"/>
      <point x="327" y="24"/>
      <point x="327" y="10" type="curve" smooth="yes"/>
      <point x="327" y="3"/>
      <point x="335" y="-2"/>
      <point x="357" y="-2" type="curve" smooth="yes"/>
      <point x="390" y="-2"/>
      <point x="421" y="1"/>
      <point x="454" y="1" type="curve" smooth="yes"/>
      <point x="517" y="1"/>
      <point x="510" y="-4"/>
      <point x="564" y="-4" type="curve" smooth="yes"/>
      <point x="575" y="-4"/>
      <point x="590" y="-2"/>
      <point x="590" y="8" type="curve" smooth="yes"/>
      <point x="590" y="20"/>
      <point x="575" y="24"/>
      <point x="558" y="28" type="curve" smooth="yes"/>
      <point x="530" y="34"/>
      <point x="503" y="44"/>
      <point x="480" y="70" type="curve" smooth="yes"/>
      <point x="353" y="213" type="line" smooth="yes"/>
      <point x="347" y="219"/>
      <point x="348" y="223"/>
      <point x="351" y="226" type="curve" smooth="yes"/>
      <point x="442" y="328" type="line" smooth="yes"/>
      <point x="467" y="356"/>
      <point x="508" y="369"/>
      <point x="533" y="375" type="curve"/>
      <point x="548" y="379"/>
      <point x="563" y="384"/>
      <point x="563" y="395" type="curve" smooth="yes"/>
      <point x="563" y="404"/>
      <point x="547" y="406"/>
      <point x="537" y="406" type="curve" smooth="yes"/>
      <point x="514" y="406"/>
      <point x="508" y="400"/>
      <point x="457" y="400" type="curve" smooth="yes"/>
      <point x="435" y="400"/>
      <point x="408" y="403"/>
      <point x="392" y="403" type="curve" smooth="yes"/>
      <point x="385" y="403"/>
      <point x="361" y="403"/>
      <point x="361" y="391" type="curve" smooth="yes"/>
      <point x="361" y="380"/>
      <point x="377" y="376"/>
      <point x="390" y="372" type="curve"/>
      <point x="406" y="369"/>
      <point x="410" y="363"/>
      <point x="410" y="356" type="curve" smooth="yes"/>
      <point x="410" y="349"/>
      <point x="405" y="340"/>
      <point x="397" y="333" type="curve"/>
      <point x="323" y="254" type="line" smooth="yes"/>
      <point x="318" y="250"/>
      <point x="315" y="249"/>
      <point x="310" y="254" type="curve" smooth="yes"/>
      <point x="242" y="325" type="line"/>
      <point x="227" y="340"/>
      <point x="223" y="350"/>
      <point x="223" y="356" type="curve" smooth="yes"/>
      <point x="223" y="367"/>
      <point x="236" y="371"/>
      <point x="249" y="374" type="curve" smooth="yes"/>
      <point x="262" y="377"/>
      <point x="273" y="381"/>
      <point x="273" y="391" type="curve" smooth="yes"/>
      <point x="273" y="402"/>
      <point x="251" y="402"/>
      <point x="243" y="402" type="curve" smooth="yes"/>
      <point x="210" y="402"/>
      <point x="204" y="399"/>
      <point x="171" y="399" type="curve" smooth="yes"/>
      <point x="109" y="399"/>
      <point x="118" y="404"/>
      <point x="67" y="404" type="curve" smooth="yes"/>
      <point x="59" y="404"/>
      <point x="38" y="404"/>
      <point x="38" y="393" type="curve" smooth="yes"/>
      <point x="38" y="381"/>
      <point x="53" y="376"/>
      <point x="70" y="372" type="curve" smooth="yes"/>
      <point x="98" y="366"/>
      <point x="114" y="355"/>
      <point x="136" y="330" type="curve" smooth="yes"/>
      <point x="249" y="213" type="line" smooth="yes"/>
      <point x="255" y="206"/>
      <point x="257" y="201"/>
      <point x="246" y="191" type="curve"/>
      <point x="140" y="81" type="line" smooth="yes"/>
      <point x="104" y="44"/>
      <point x="72" y="32"/>
      <point x="45" y="26" type="curve" smooth="yes"/>
      <point x="30" y="23"/>
      <point x="14" y="18"/>
      <point x="14" y="6" type="curve" smooth="yes"/>
      <point x="14" y="-3"/>
      <point x="31" y="-5"/>
      <point x="42" y="-5" type="curve" smooth="yes"/>
      <point x="66" y="-5"/>
      <point x="82" y="1"/>
    </contour>
  </outline>
</glyph>
